<svg id="Layer_1" enable-background="new 0 0 510 510" height="512" viewBox="0 0 510 510" width="512" xmlns="http://www.w3.org/2000/svg"><g id="XMLID_4117_"><path id="XMLID_4218_" d="m60 480c0-15.8 0-33.8 0-49.6 13.3-5 96.8-36.3 110.3-41.4-3.7-9.8-6.9-18.3-10.5-28.1-15.8 5.9-114 42.7-129.8 48.7v70.4l15 15z" fill="#5e54ac"/><path id="XMLID_4337_" d="m339.7 389c13.3 5 96.8 36.3 110.3 41.4v49.6l15 15 15-15c0-8.5 0-61.8 0-70.4-15.7-5.9-113.9-42.7-129.7-48.6-3.7 9.7-6.9 18.2-10.6 28z" fill="#453d81"/><path id="XMLID_4262_" d="m223.2 133.1 21.2 21.2c2.8-2.8 6.6-4.4 10.6-4.4l15-15-15-15c-11.9.1-23.3 4.7-31.8 13.2z" fill="#a5e8fd"/><path id="XMLID_4241_" d="m265.6 154.4c7.4-7.4 13.8-13.8 21.2-21.2-8.5-8.5-19.9-13.2-31.8-13.2v30c4 0 7.8 1.5 10.6 4.4z" fill="#7dd5f4"/><path id="XMLID_4239_" d="m180.8 90.7c7.4 7.4 13.8 13.8 21.2 21.2 14.1-14.1 33.1-21.9 53-21.9l15-15-15-15c-27.8 0-54.4 10.9-74.2 30.7z" fill="#a5e8fd"/><path id="XMLID_4236_" d="m308 111.9c7.4-7.4 13.8-13.8 21.2-21.2-19.8-19.8-46.4-30.7-74.2-30.7v30c19.9 0 38.9 7.8 53 21.9z" fill="#7dd5f4"/><path id="XMLID_4228_" d="m138.3 48.3c7.4 7.4 13.8 13.8 21.2 21.2 25.5-25.5 59.7-39.5 95.5-39.5l15-15-15-15c-43.7 0-85.5 17.1-116.7 48.3z" fill="#a5e8fd"/><path id="XMLID_4227_" d="m371.7 48.3c-31.2-31.1-72.9-48.3-116.7-48.3v30c35.7 0 69.9 14 95.5 39.5 7.4-7.4 13.8-13.8 21.2-21.2z" fill="#7dd5f4"/><path id="XMLID_4221_" d="m120 195-30 52.5 30 52.5h30v75c0 53 39.4 96.7 90 103.9 2.5.4 30-141.4 30-141.4l-15-142.5c-5.7 0-122.2 0-135 0z" fill="#4793ff"/><path id="XMLID_4212_" d="m360 375c0-20.2 0-63.2 0-75h30l30-52.5-30-52.5c-12.5 0-128.6 0-135 0v142.5s12.5 141.8 15 141.4c50.7-7.3 90-51 90-103.9z" fill="#525cdd"/><path id="XMLID_4209_" d="m240 405v73.9c5 .7 10 1.1 15 1.1l15-30-15-45c-5.2 0-9.8 0-15 0z" fill="#7dd5f4"/><path id="XMLID_4207_" d="m270 405c-5.2 0-9.8 0-15 0v75c5 0 10-.4 15-1.1 0-8.4 0-65.2 0-73.9z" fill="#4793ff"/><path id="XMLID_4173_" d="m435 135 15 15 15-15c0-10.5 0-19.5 0-30l-15-15-15 15z" fill="#453d81"/><path id="XMLID_4213_" d="m75 135-15 15-15-15c0-10.5 0-19.5 0-30l15-15 15 15z" fill="#5e54ac"/><path id="XMLID_4119_" d="m390 285c0 33.1 26.9 60 60 60s60-26.9 60-60c0-10.1 0-139.9 0-150-14.5 0-105.4 0-120 0z" fill="#4793ff"/><path id="XMLID_4216_" d="m60 345c-33.1 0-60-27-60-60v-150h120v150c0 33-26.9 60-60 60z" fill="#7dd5f4"/><path id="XMLID_4118_" d="m405 105h90c0-10.5 0-19.5 0-30-10.9 0-79 0-90 0z" fill="#2e2654"/><path id="XMLID_4214_" d="m15 75h90v30h-90z" fill="#453d81"/><path id="XMLID_4116_" d="m223.2 406.8c8.1 8.1 19.4 13.2 31.8 13.2l15-45-15-45c-12.4 0-23.7 5-31.8 13.2-17.6 17.5-17.6 46 0 63.6z" fill="#a5e8fd"/><path id="XMLID_4096_" d="m286.8 343.2c-8.1-8.2-19.4-13.2-31.8-13.2v90c12.4 0 23.7-5 31.8-13.2 17.6-17.6 17.6-46 0-63.6z" fill="#7dd5f4"/><path id="XMLID_3986_" d="m240 270v30h15l15-15-15-15c-5.2 0-9.8 0-15 0z" fill="#df5ccb"/><path id="XMLID_1_" d="m255 270v30h15c0-10.5 0-19.5 0-30-5.2 0-9.8 0-15 0z" fill="#ec3d93"/><path id="XMLID_4230_" d="m0 480h90v30h-90z" fill="#453d81"/><path id="XMLID_4338_" d="m420 510h90c0-10.5 0-19.5 0-30-10.9 0-79 0-90 0z" fill="#2e2654"/></g></svg>