<svg id="Capa_1" enable-background="new 0 0 512 512" height="512" viewBox="0 0 512 512" width="512" xmlns="http://www.w3.org/2000/svg"><g><g fill="#bcfbff"><path d="m393.9 57.158c-36.826-36.855-85.796-57.158-137.9-57.158-52.119 0-101.074 20.273-137.856 57.1-5.845 5.874-5.845 15.366.015 21.226 5.859 5.83 15.366 5.845 21.226-.015 31.097-31.158 72.523-48.311 116.615-48.311 44.077 0 85.518 17.183 116.689 48.369 5.859 5.859 15.352 5.859 21.211 0 5.86-5.845 5.86-15.351 0-21.211z"/><path d="m256 60c-36.064 0-69.961 14.048-95.435 39.536-5.859 5.859-5.859 15.366 0 21.211 5.859 5.859 15.352 5.859 21.211 0 19.82-19.834 47.02-29.751 74.224-29.747 27.208.004 54.419 9.928 74.253 29.777 5.859 5.859 15.352 5.859 21.211 0 5.859-5.845 5.859-15.352 0-21.211-25.488-25.518-59.4-39.566-95.464-39.566z"/><path d="m256 120.725c-19.438 0-38.877 7.083-53.027 21.248-5.859 5.859-5.859 15.366 0 21.211 5.859 5.859 15.352 5.859 21.211 0 8.496-8.496 20.156-12.744 31.816-12.744s23.32 4.248 31.816 12.744c5.859 5.859 15.352 5.859 21.211 0 5.859-5.845 5.859-15.352 0-21.211-14.15-14.165-33.589-21.248-53.027-21.248z"/></g><path d="m30 436v61c0 8.291 6.709 15 15 15h90c8.291 0 15-6.709 15-15v-61z" fill="#2d4051"/><path d="m362 436v61c0 8.291 6.709 15 15 15h90c8.291 0 15-6.709 15-15v-61z" fill="#1a252f"/><path d="m419.48 216.68c-2.783-4.175-7.471-6.68-12.48-6.68h-151-151c-5.01 0-9.697 2.505-12.48 6.68l-60 91 24.96 46.64h198.52 198.52l24.961-46.641z" fill="#dce1eb"/><path d="m479.48 307.68-60-91c-2.783-4.175-7.471-6.68-12.48-6.68h-151v144.32h198.52z" fill="#cdd2e1"/><path d="m398.973 240h-142.973-142.973l-55.547 84.32 55.282 30h143.238 166l32.52-30z" fill="#2d4051"/><path d="m454.52 324.32-55.547-84.32h-142.973v114.32h166z" fill="#1a252f"/><path d="m497 301h-90c-2.329 0-4.629.542-6.709 1.582l-56.836 28.418h-87.455-87.455l-56.836-28.418c-2.08-1.04-4.38-1.582-6.709-1.582h-90c-8.291 0-15 6.709-15 15v120c0 8.291 6.709 15 15 15h241 241c8.291 0 15-6.709 15-15v-120c0-8.291-6.709-15-15-15z" fill="#dce1eb"/><path d="m512 436v-120c0-8.291-6.709-15-15-15h-90c-2.329 0-4.629.542-6.709 1.582l-56.836 28.418h-87.455v120h241c8.291 0 15-6.709 15-15z" fill="#cdd2e1"/><path d="m437 391h-30c-8.291 0-15-6.709-15-15s6.709-15 15-15h30c8.291 0 15 6.709 15 15s-6.709 15-15 15z" fill="#dce1eb"/><path d="m105 391h-30c-8.291 0-15-6.709-15-15s6.709-15 15-15h30c8.291 0 15 6.709 15 15s-6.709 15-15 15z" fill="#f2f6fc"/><path d="m393.9 78.369c5.859-5.845 5.859-15.352 0-21.211-36.826-36.855-85.796-57.158-137.9-57.158v30c44.077 0 85.518 17.183 116.689 48.369 5.86 5.86 15.352 5.86 21.211 0z" fill="#7dd5f4"/><path d="m330.253 120.776c5.859 5.859 15.352 5.859 21.211 0 5.859-5.845 5.859-15.352 0-21.211-25.488-25.517-59.4-39.565-95.464-39.565v31c27.208.003 54.419 9.928 74.253 29.776z" fill="#7dd5f4"/><path d="m309.027 163.184c5.859-5.845 5.859-15.352 0-21.211-14.15-14.165-33.589-21.248-53.027-21.248v29.714c11.66 0 23.32 4.248 31.816 12.744 5.86 5.86 15.352 5.86 21.211.001z" fill="#7dd5f4"/></g></svg>