<svg id="Layer_5" enable-background="new 0 0 64 64" height="512" viewBox="0 0 64 64" width="512" xmlns="http://www.w3.org/2000/svg" xmlns:xlink="http://www.w3.org/1999/xlink"><linearGradient id="SVGID_1_" gradientUnits="userSpaceOnUse" x1="32" x2="32" y1="63" y2="1"><stop offset="0" stop-color="#9f2fff"/><stop offset="1" stop-color="#0bb1d3"/></linearGradient><path d="m61.557 13.95c1.966-5.231 1.904-9.128-.237-11.269-4.384-4.386-16.032.075-29.333 10.872-3.503-2.831-6.935-5.255-10.229-7.23.147-.416.242-.857.242-1.323 0-2.206-1.794-4-4-4-1.365 0-2.57.689-3.292 1.736-5.633-2.274-9.783-2.3-12.028-.055-4.331 4.333-.052 15.8 10.88 29.318-3.063 3.789-5.686 7.541-7.742 11.086-.265-.055-.538-.085-.818-.085-2.206 0-4 1.794-4 4 0 1.229.569 2.316 1.443 3.05-1.966 5.231-1.904 9.128.237 11.269 1.128 1.128 2.736 1.671 4.731 1.67 5.755 0 14.722-4.531 24.597-12.546 3.504 2.833 6.938 5.257 10.233 7.233-.146.417-.241.858-.241 1.324 0 2.206 1.794 4 4 4 1.365 0 2.57-.69 3.292-1.736 2.838 1.146 5.303 1.726 7.333 1.726 1.999 0 3.581-.556 4.694-1.67 4.332-4.333.052-15.801-10.879-29.318 3.063-3.789 5.687-7.541 7.743-11.086.264.054.537.084.817.084 2.206 0 4-1.794 4-4 0-1.229-.569-2.316-1.443-3.05zm-43.557-10.95c1.103 0 2 .897 2 2s-.897 2-2 2-2-.897-2-2 .897-2 2-2zm-13.905 1.095c1.62-1.621 5.146-1.413 9.942.538-.011.123-.037.241-.037.367 0 2.206 1.794 4 4 4 1.015 0 1.933-.392 2.639-1.017 3.142 1.877 6.421 4.185 9.772 6.873-1.155.972-2.32 1.986-3.493 3.049-4.184 1.514-7.499 4.83-9.013 9.014-1.055 1.164-2.067 2.333-3.046 3.501-9.603-11.981-14.13-22.958-10.764-26.325zm27.905 40.905c-3.225 0-6.173-1.187-8.447-3.139l8.861-8.861h12.535c-.514 6.701-6.119 12-12.949 12zm-9.861-21.447 8.447 8.447-8.447 8.447c-1.952-2.274-3.139-5.222-3.139-8.447s1.187-6.173 3.139-8.447zm10.275 7.447-8.861-8.861c2.274-1.952 5.222-3.139 8.447-3.139 6.83 0 12.435 5.299 12.949 12zm-27.414 14c1.103 0 2 .897 2 2s-.897 2-2 2-2-.897-2-2 .897-2 2-2zm-.905 14.905c-1.506-1.506-1.433-4.686.153-8.981.244.047.494.076.752.076 2.206 0 4-1.794 4-4 0-1.206-.548-2.277-1.395-3.011 2.42-4.154 5.641-8.608 9.45-13.068-.026.358-.055.715-.055 1.079 0 8.271 6.729 15 15 15 .368 0 .729-.029 1.091-.055-3.565 3.051-6.952 5.574-10.091 7.616v-9.561h-12v10h11.339c-9.052 5.758-15.861 7.288-18.244 4.905zm16.905-12.905v6h-8v-6zm25 14c-1.103 0-2-.897-2-2s.897-2 2-2 2 .897 2 2-.897 2-2 2zm13.905-1.095c-1.621 1.619-5.146 1.411-9.942-.538.011-.123.037-.241.037-.367 0-2.206-1.794-4-4-4-1.015 0-1.933.392-2.639 1.017-3.143-1.878-6.423-4.187-9.776-6.876 1.156-.973 2.321-1.982 3.495-3.046 4.185-1.514 7.502-4.831 9.015-9.017 1.055-1.164 2.066-2.332 3.045-3.499 9.604 11.982 14.132 22.959 10.765 26.326zm-12.96-26.827c.026-.357.055-.714.055-1.078 0-8.271-6.729-15-15-15-.368 0-.729.029-1.09.055 14.216-12.162 25.74-16.214 28.995-12.96 1.506 1.506 1.433 4.686-.153 8.981-.244-.047-.494-.076-.752-.076-2.206 0-4 1.794-4 4 0 1.206.548 2.277 1.395 3.011-2.42 4.154-5.642 8.607-9.45 13.067zm12.055-14.078c-1.103 0-2-.897-2-2s.897-2 2-2 2 .897 2 2-.897 2-2 2zm-38-8h-12v10h12zm-2 8h-8v-6h8zm-2-2h-4v-2h4zm24 3h12v-10h-12zm2-8h8v6h-8zm2 2h4v2h-4zm-26 37h-4v-2h4zm24 2h12v-10h-12zm2-8h8v6h-8zm2 2h4v2h-4zm-12-22h2v2h-2zm4 0h2v2h-2zm-8 0h2v2h-2zm-8 8h-2v-2h2zm4 0h-2v-2h2zm4 4h2v2h-2zm4 0h2v2h-2zm4 0h2v2h-2z" fill="url(#SVGID_1_)"/></svg>