<svg id="Layer_3" enable-background="new 0 0 64 64" height="512" viewBox="0 0 64 64" width="512" xmlns="http://www.w3.org/2000/svg"><g><path d="m34 62h-28c-2.209 0-4-1.791-4-4v-52c0-2.209 1.791-4 4-4h28c2.209 0 4 1.791 4 4v52c0 2.209-1.791 4-4 4z" fill="#4d5d7a"/><path d="m6 6h28v48h-28z" fill="#c7e2fc"/><path d="m6 49.815c14.053-1.711 25-15.301 25-31.815 0-4.245-.73-8.293-2.043-12h-22.957z" fill="#ebf7fe"/><path d="m49 41h3c5.523 0 10-4.477 10-10s-4.477-10-10-10c-.699 0-1.381.073-2.04.21-.409-6.258-5.599-11.21-11.96-11.21s-11.551 4.952-11.96 11.21c-.659-.137-1.341-.21-2.04-.21-5.523 0-10 4.477-10 10s4.477 10 10 10h3" fill="#3d98f7"/><path d="m19 57h2v2h-2z" fill="#8892a0"/><path d="m47 30h-1v2h1c.551 0 1 .448 1 1v10c0 .552-.449 1-1 1h-11.149l2.774-2.219-1.249-1.562-5 4c-.238.19-.376.477-.376.781s.138.591.375.781l5 4 1.249-1.562-2.773-2.219h11.149c1.654 0 3-1.346 3-3v-10c0-1.654-1.346-3-3-3z" fill="#2b74ca"/><path d="m28 43v-10c0-.552.449-1 1-1h11.149l-2.774 2.219 1.249 1.562 5-4c.238-.19.376-.477.376-.781s-.138-.591-.375-.781l-5-4-1.249 1.562 2.773 2.219h-11.149c-1.654 0-3 1.346-3 3v10c0 1.654 1.346 3 3 3h1v-2h-1c-.551 0-1-.448-1-1z" fill="#fff"/><path d="m19 57h2v2h-2z"/><path d="m52 20c-.386 0-.773.021-1.159.062-.893-5.957-5.832-10.552-11.841-11.016v-3.046c0-2.757-2.243-5-5-5h-28c-2.757 0-5 2.243-5 5v52c0 2.757 2.243 5 5 5h28c2.757 0 5-2.243 5-5v-7h-2v7c0 1.654-1.346 3-3 3h-28c-1.654 0-3-1.346-3-3v-52c0-1.654 1.346-3 3-3h28c1.654 0 3 1.346 3 3v3.046c-.683.053-1.349.164-2 .319v-3.365c0-.553-.448-1-1-1h-28c-.552 0-1 .447-1 1v48c0 .553.448 1 1 1h28c.552 0 1-.447 1-1v-3h-2v2h-26v-46h26v3.019c-4.094 1.722-7.157 5.48-7.841 10.042-.386-.04-.773-.061-1.159-.061-6.065 0-11 4.935-11 11s4.935 11 11 11h2v1c0 1.654 1.346 3 3 3h1v-2h-1c-.551 0-1-.448-1-1v-10c0-.552.449-1 1-1h11.149l-2.774 2.219 1.249 1.562 5-4c.238-.19.376-.477.376-.781s-.138-.591-.375-.781l-5-4-1.249 1.562 2.773 2.219h-11.149c-1.654 0-3 1.346-3 3v7h-2c-4.962 0-9-4.037-9-9s4.038-9 9-9c.614 0 1.232.063 1.837.189.283.058.578-.008.809-.184s.374-.441.393-.73c.375-5.761 5.19-10.275 10.961-10.275s10.586 4.514 10.962 10.275c.019.289.162.555.393.73s.527.242.809.184c.604-.126 1.222-.189 1.836-.189 4.962 0 9 4.037 9 9s-4.038 9-9 9h-2v-7c0-1.654-1.346-3-3-3h-1v2h1c.551 0 1 .448 1 1v10c0 .552-.449 1-1 1h-11.149l2.774-2.219-1.249-1.562-5 4c-.238.19-.376.477-.376.781s.138.591.375.781l5 4 1.249-1.562-2.773-2.219h11.149c1.654 0 3-1.346 3-3v-1h2c6.065 0 11-4.935 11-11s-4.935-11-11-11z"/></g></svg>