<svg height="512pt" viewBox="-5 0 512 512.0002" width="512pt" xmlns="http://www.w3.org/2000/svg"><path d="m26.484375 432.550781h150.066406v52.964844h-150.066406zm0 0" fill="#5e5f62"/><path d="m489.726562 273.804688c-2.859374.003906-5.546874-1.382813-7.203124-3.714844l-35.792969-50.371094c-1.828125-2.570312-2.144531-5.921875-.828125-8.789062 1.3125-2.867188 4.058594-4.816407 7.199218-5.113282 3.140626-.292968 6.199219 1.109375 8.023438 3.679688l35.796875 50.371094c1.914063 2.691406 2.160156 6.226562.648437 9.160156-1.515624 2.933594-4.539062 4.777344-7.84375 4.777344zm0 0" fill="#5e5f62"/><path d="m397.710938 167.007812c-3.84375.003907-7.246094-2.480468-8.414063-6.140624-1.171875-3.65625.160156-7.652344 3.292969-9.878907l64.757812-46.011719c3.972656-2.683593 9.363282-1.707031 12.140625 2.203126 2.777344 3.90625 1.925781 9.320312-1.917969 12.1875l-64.757812 46.007812c-1.492188 1.0625-3.273438 1.632812-5.101562 1.632812zm0 0" fill="#bdc3c7"/><path d="m383.300781 145.671875 28.785157-20.453125c3.972656-2.824219 9.484374-1.890625 12.308593 2.085938l35.789063 50.371093c8.46875 11.925781 5.671875 28.457031-6.25 36.929688-11.925782 8.46875-28.457032 5.671875-36.929688-6.253907l-35.789062-50.371093c-2.824219-3.976563-1.890625-9.484375 2.085937-12.308594zm0 0" fill="#f29c1f"/><path d="m291.308594 273.65625-88.273438 88.273438-185.378906-256 .441406-.441407 86.863282-87.832031 12.09375 16.59375.175781.179688.089843.175781 51.90625 71.324219 80.417969 110.433593zm0 0" fill="#e57e25"/><path d="m188.75 512h-174.46875c-3.054688 0-5.894531-1.585938-7.503906-4.1875-1.605469-2.601562-1.753906-5.851562-.386719-8.585938l6.382813-12.773437c2.988281-5.984375 9.105468-9.761719 15.792968-9.761719h145.902344c6.6875 0 12.800781 3.777344 15.792969 9.761719l6.382812 12.773437c1.367188 2.734376 1.21875 5.984376-.386719 8.585938-1.609374 2.601562-4.449218 4.1875-7.507812 4.1875zm0 0" fill="#f29c1f"/><path d="m26.484375 353.105469h150.066406v61.792969h-150.066406zm0 0" fill="#5e5f62"/><path d="m26.484375 406.070312h150.066406v35.308594h-150.066406zm0 0" fill="#bdc3c7"/><path d="m132.679688 264.828125h-70.886719c-29.25 0-52.964844 23.714844-52.964844 52.964844v44.136719c0 4.875 3.953125 8.828124 8.828125 8.828124h197.738281zm0 0" fill="#f29c1f"/><path d="m79.449219 317.792969c0 9.75-7.90625 17.65625-17.65625 17.65625s-17.65625-7.90625-17.65625-17.65625 7.90625-17.65625 17.65625-17.65625 17.65625 7.90625 17.65625 17.65625zm0 0" fill="#e57e25"/><path d="m123.585938 61.792969c-.042969 34.109375-27.683594 61.75-61.792969 61.792969-34.128907 0-61.792969-27.664063-61.792969-61.792969 0-34.128907 27.664062-61.792969 61.792969-61.792969 16.15625-.0390625 31.671875 6.304688 43.167969 17.65625 4.988281 4.765625 9.085937 10.386719 12.09375 16.59375l.175781.179688.089843.175781c4.121094 8.46875 6.265626 17.765625 6.265626 27.1875zm0 0" fill="#5e5f62"/><path d="m79.449219 61.792969c0 9.75-7.90625 17.65625-17.65625 17.65625s-17.65625-7.90625-17.65625-17.65625 7.90625-17.65625 17.65625-17.65625 17.65625 7.90625 17.65625 17.65625zm0 0" fill="#bdc3c7"/><path d="m194.207031 17.65625v88.273438h-24.980469l-51.90625-71.324219-.089843-.175781-.175781-.179688c-3.007813-6.207031-7.105469-11.828125-12.09375-16.59375zm0 0" fill="#f29c1f"/><path d="m220.691406 26.484375v70.621094c0 4.875-3.953125 8.824219-8.828125 8.824219h-26.484375v-88.273438h26.484375c4.875 0 8.828125 3.953125 8.828125 8.828125zm0 0" fill="#e57e25"/><path d="m220.691406 44.136719h35.308594v35.3125h-35.308594zm0 0" fill="#bdc3c7"/><path d="m353.105469 35.308594v52.96875h-87.394531c-5.117188.234375-9.457032-3.714844-9.710938-8.828125v-35.3125c.253906-5.113281 4.59375-9.0625 9.710938-8.828125zm0 0" fill="#f29c1f"/><path d="m379.585938 44.136719v35.3125c0 4.875-3.953126 8.828125-8.828126 8.828125h-26.480468v-52.96875h26.480468c4.875 0 8.828126 3.953125 8.828126 8.828125zm0 0" fill="#e57e25"/><path d="m152.71875 152.894531c-2.835938.003907-5.496094-1.351562-7.160156-3.644531l-13.949219-19.246094c-2.859375-3.949218-1.980469-9.46875 1.96875-12.332031s9.472656-1.980469 12.332031 1.96875l13.949219 19.242187c1.382813 1.902344 1.949219 4.273438 1.578125 6.59375-.371094 2.316407-1.648438 4.394532-3.554688 5.765626-1.503906 1.085937-3.3125 1.664062-5.164062 1.652343zm0 0" fill="#f29c1f"/><path d="m211.519531 234.109375c-2.839843 0-5.5-1.363281-7.160156-3.664063l-35.132813-48.550781c-1.976562-2.550781-2.402343-5.972656-1.117187-8.929687 1.285156-2.953125 4.082031-4.972656 7.289063-5.269532 3.210937-.292968 6.324218 1.1875 8.128906 3.859376l35.132812 48.550781c1.941406 2.6875 2.214844 6.234375.710938 9.1875-1.507813 2.949219-4.539063 4.808593-7.851563 4.816406zm0 0" fill="#f29c1f"/><path d="m429.019531 79.449219h-49.433593v-35.3125h49.699218zm0 0" fill="#bdc3c7"/><path d="m485.871094 68.0625-43.167969 30.628906-15.359375-21.539062c-5.488281-7.710938-6.445312-17.761719-2.511719-26.371094 3.933594-8.609375 12.164063-14.460938 21.585938-15.359375s18.605469 3.300781 24.09375 11.011719zm0 0" fill="#f29c1f"/><path d="m499.113281 101.957031-35.929687 25.511719-20.480469-28.777344 43.167969-30.628906 15.359375 21.539062c2.808593 4 1.863281 9.519532-2.117188 12.355469zm0 0" fill="#e57e25"/><path d="m308.964844 317.792969c0 34.128906-27.664063 61.792969-61.792969 61.792969-18.492187-.027344-36.007813-8.316407-47.757813-22.597657-1.65625-2.023437-3.1875-4.148437-4.589843-6.355469-13.949219-22.242187-12.324219-50.871093 4.054687-71.386718 16.378906-20.519532 43.9375-28.445313 68.714844-19.769532 24.777344 8.675782 41.371094 32.0625 41.371094 58.316407zm0 0" fill="#5e5f62"/><path d="m264.828125 317.792969c0 9.75-7.90625 17.65625-17.65625 17.65625s-17.65625-7.90625-17.65625-17.65625 7.90625-17.65625 17.65625-17.65625 17.65625 7.90625 17.65625 17.65625zm0 0" fill="#bdc3c7"/></svg>